<mxfile host="app.diagrams.net" agent="Mozilla/5.0 (Windows NT 10.0; Win64; x64) AppleWebKit/537.36 (KHTML, like Gecko) Chrome/140.0.0.0 Safari/537.36" version="28.2.3">
  <diagram name="Page-1" id="yN0pM98z8qXd9BGOSUgj">
    <mxGraphModel dx="1042" dy="2900" grid="1" gridSize="10" guides="1" tooltips="1" connect="1" arrows="1" fold="1" page="1" pageScale="1" pageWidth="827" pageHeight="1169" math="0" shadow="0">
      <root>
        <mxCell id="0" />
        <mxCell id="1" parent="0" />
        <mxCell id="WojiIEWn1QVg7i5Tafr3-3" value="" style="edgeStyle=orthogonalEdgeStyle;rounded=0;orthogonalLoop=1;jettySize=auto;html=1;" edge="1" parent="1" source="WojiIEWn1QVg7i5Tafr3-1" target="WojiIEWn1QVg7i5Tafr3-2">
          <mxGeometry relative="1" as="geometry" />
        </mxCell>
        <mxCell id="WojiIEWn1QVg7i5Tafr3-1" value="Plan" style="rounded=0;whiteSpace=wrap;html=1;" vertex="1" parent="1">
          <mxGeometry x="294" y="-2320" width="120" height="60" as="geometry" />
        </mxCell>
        <mxCell id="WojiIEWn1QVg7i5Tafr3-17" style="edgeStyle=orthogonalEdgeStyle;rounded=0;orthogonalLoop=1;jettySize=auto;html=1;entryX=0.5;entryY=0;entryDx=0;entryDy=0;" edge="1" parent="1" source="WojiIEWn1QVg7i5Tafr3-2" target="WojiIEWn1QVg7i5Tafr3-4">
          <mxGeometry relative="1" as="geometry" />
        </mxCell>
        <mxCell id="WojiIEWn1QVg7i5Tafr3-2" value="Develop" style="ellipse;whiteSpace=wrap;html=1;rounded=0;" vertex="1" parent="1">
          <mxGeometry x="316" y="-2220" width="76" height="50" as="geometry" />
        </mxCell>
        <mxCell id="WojiIEWn1QVg7i5Tafr3-19" style="edgeStyle=orthogonalEdgeStyle;rounded=0;orthogonalLoop=1;jettySize=auto;html=1;" edge="1" parent="1" source="WojiIEWn1QVg7i5Tafr3-4">
          <mxGeometry relative="1" as="geometry">
            <mxPoint x="354" y="-2040" as="targetPoint" />
          </mxGeometry>
        </mxCell>
        <mxCell id="WojiIEWn1QVg7i5Tafr3-4" value="Build" style="ellipse;whiteSpace=wrap;html=1;rounded=0;" vertex="1" parent="1">
          <mxGeometry x="316" y="-2130" width="76" height="50" as="geometry" />
        </mxCell>
        <mxCell id="WojiIEWn1QVg7i5Tafr3-20" style="edgeStyle=orthogonalEdgeStyle;rounded=0;orthogonalLoop=1;jettySize=auto;html=1;exitX=0.5;exitY=1;exitDx=0;exitDy=0;entryX=0.5;entryY=0;entryDx=0;entryDy=0;" edge="1" parent="1" source="WojiIEWn1QVg7i5Tafr3-9" target="WojiIEWn1QVg7i5Tafr3-10">
          <mxGeometry relative="1" as="geometry" />
        </mxCell>
        <mxCell id="WojiIEWn1QVg7i5Tafr3-9" value="Test" style="shape=parallelogram;perimeter=parallelogramPerimeter;whiteSpace=wrap;html=1;fixedSize=1;" vertex="1" parent="1">
          <mxGeometry x="294" y="-2050" width="116" height="80" as="geometry" />
        </mxCell>
        <mxCell id="WojiIEWn1QVg7i5Tafr3-13" style="edgeStyle=orthogonalEdgeStyle;rounded=0;orthogonalLoop=1;jettySize=auto;html=1;exitX=0.5;exitY=1;exitDx=0;exitDy=0;entryX=0.5;entryY=0;entryDx=0;entryDy=0;" edge="1" parent="1" source="WojiIEWn1QVg7i5Tafr3-10" target="WojiIEWn1QVg7i5Tafr3-11">
          <mxGeometry relative="1" as="geometry" />
        </mxCell>
        <mxCell id="WojiIEWn1QVg7i5Tafr3-10" value="Deploy" style="shape=hexagon;perimeter=hexagonPerimeter2;whiteSpace=wrap;html=1;fixedSize=1;" vertex="1" parent="1">
          <mxGeometry x="307" y="-1940" width="90" height="30" as="geometry" />
        </mxCell>
        <mxCell id="WojiIEWn1QVg7i5Tafr3-12" style="edgeStyle=orthogonalEdgeStyle;rounded=0;orthogonalLoop=1;jettySize=auto;html=1;" edge="1" parent="1" source="WojiIEWn1QVg7i5Tafr3-11">
          <mxGeometry relative="1" as="geometry">
            <mxPoint x="352" y="-1770" as="targetPoint" />
          </mxGeometry>
        </mxCell>
        <mxCell id="WojiIEWn1QVg7i5Tafr3-11" value="Operate" style="ellipse;whiteSpace=wrap;html=1;" vertex="1" parent="1">
          <mxGeometry x="312" y="-1870" width="80" height="50" as="geometry" />
        </mxCell>
        <mxCell id="WojiIEWn1QVg7i5Tafr3-15" value="Monitor" style="shape=trapezoid;perimeter=trapezoidPerimeter;whiteSpace=wrap;html=1;fixedSize=1;" vertex="1" parent="1">
          <mxGeometry x="290" y="-1800" width="120" height="60" as="geometry" />
        </mxCell>
      </root>
    </mxGraphModel>
  </diagram>
</mxfile>
